<svg width="196" height="181" viewBox="0 0 196 181" fill="none" xmlns="http://www.w3.org/2000/svg">
<circle cx="68.3013" cy="68.3013" r="48" transform="rotate(-30 68.3013 68.3013)" fill="white"/>
<circle cx="68.3013" cy="68.3013" r="48" transform="rotate(-30 68.3013 68.3013)" fill="url(#paint0_linear)"/>
<circle cx="68.3013" cy="68.3013" r="48" transform="rotate(-30 68.3013 68.3013)" fill="url(#paint1_linear)"/>
<circle cx="68.3013" cy="68.3013" r="48" transform="rotate(-30 68.3013 68.3013)" stroke="#FFD700" stroke-width="4"/>
<rect x="48.4807" y="73.9711" width="40" height="10" transform="rotate(-30 48.4807 73.9711)" fill="#484848"/>
<rect x="35.1506" y="60.8827" width="50" height="10" transform="rotate(-30 35.1506 60.8827)" fill="#484848"/>
<rect x="53.1506" y="92.0596" width="50" height="10" transform="rotate(-30 53.1506 92.0596)" fill="#484848"/>
<path d="M64.0718 80C67.151 74.6667 74.849 74.6667 77.9282 80L107.373 131C110.452 136.333 106.603 143 100.445 143H41.5551C35.3967 143 31.5477 136.333 34.6269 131L64.0718 80Z" fill="#B0B0B0"/>
<path d="M114.072 43C117.151 37.6667 124.849 37.6667 127.928 43L179.024 131.5C182.103 136.833 178.254 143.5 172.095 143.5H69.9045C63.7461 143.5 59.8971 136.833 62.9763 131.5L114.072 43Z" fill="#C4C4C4"/>
<defs>
<linearGradient id="paint0_linear" x1="68.3013" y1="18.3013" x2="68.3013" y2="118.301" gradientUnits="userSpaceOnUse">
<stop offset="0.40625" stop-color="#FFD700" stop-opacity="0"/>
<stop offset="1" stop-color="#FFD700"/>
</linearGradient>
<linearGradient id="paint1_linear" x1="68.3013" y1="18.3013" x2="68.3013" y2="118.301" gradientUnits="userSpaceOnUse">
<stop stop-color="#FFD700"/>
<stop offset="0.630208" stop-color="#FFD700" stop-opacity="0"/>
</linearGradient>
</defs>
</svg>
