<svg width="256" height="256" viewBox="0 0 256 256" fill="none" xmlns="http://www.w3.org/2000/svg">
<rect x="120.32" width="15.36" height="256" rx="4" fill="#964B00"/>
<path d="M215.681 40.3187C217.243 38.7566 217.248 36.219 215.637 34.7065C204.375 24.1264 191.28 15.6654 176.983 9.74341C161.454 3.31081 144.809 -3.80717e-06 128 0C111.191 3.80718e-06 94.5462 3.31083 79.0165 9.74343C64.7196 15.6654 51.6254 24.1264 40.3625 34.7065C38.7524 36.219 38.7566 38.7567 40.3187 40.3188L43.7128 43.7129C45.2749 45.275 47.8029 45.2694 49.4183 43.7625C59.4889 34.368 71.171 26.8478 83.9148 21.5691C97.8915 15.7797 112.872 12.8 128 12.8C143.128 12.8 158.108 15.7797 172.085 21.5691C184.829 26.8477 196.511 34.368 206.582 43.7625C208.197 45.2694 210.725 45.275 212.287 43.7129L215.681 40.3187Z" fill="#C4C4C4"/>
</svg>
